<?xml version="1.0" encoding="utf-8"?>
<svg version="1.1" xmlns="http://www.w3.org/2000/svg" xmlns:xlink="http://www.w3.org/1999/xlink" height="30.00000000000034" width="30">
  <defs>
    <rect id="rect-0" opacity="1" x="0" y="0" width="30" height="30.00000000000034"/>
    <path id="path-1" opacity="1" d="M5.908947643480356e-17,2 C-8.500620379987453e-18,0.896169951012 1.103830048988,0 2,0 L23.874890427205614,2.4492935982947064e-16 C24.978720476193615,1.0974916619988862e-16 25.087654490927168,0.7737572989514553 24.448518791462977,1.4019500550122586 L1.4263716357426368,24.02992418368881 C0.6391356994641925,24.803681482640265 4.214893334859248e-18,24.328044189713065 5.908947643480356e-17,23.431874238701067 L5.908947643480356e-17,2Z"/>
    <linearGradient id="linearGradient-2" x1="0.13" y1="0.92" x2="1.04" y2="0.08">
      <stop offset="0" stop-color="rgb(255,0,168)" stop-opacity="1"/>
      <stop offset="1" stop-color="rgb(65,26,183)" stop-opacity="1"/>
    </linearGradient>
    <path id="path-3" opacity="1" d="M4.657480276896877,7.086374847740444 C4.657480276896877,5.9825447987524445 5.761310325884876,5.086374847740444 6.657480276896877,5.086374847740444 L28.532370704102675,5.086374847740444 C29.636200753090677,5.086374847740444 29.74513476782423,5.860132146691897 29.105999068360035,6.488324902752698 L6.083851912639519,29.116299031429268 C5.296615976361071,29.89005633038072 4.657480276896877,29.41441903745352 4.657480276896877,28.51824908644152 L4.657480276896877,7.086374847740444Z"/>
    <linearGradient id="linearGradient-4" x1="0.13" y1="0.87" x2="1.01" y2="-0.02">
      <stop offset="0" stop-color="rgb(255,0,168)" stop-opacity="1"/>
      <stop offset="1" stop-color="rgb(65,26,183)" stop-opacity="1"/>
    </linearGradient>
  </defs>
  <g transform="translate(0, 0) " opacity="1">
    <g transform="translate(0, 0) ">
      <use xlink:href="#path-1" fill="url(#linearGradient-2)"/>
    </g>
    <g transform="translate(17.32874013844839, 17.543187423870403) scale(-1, -1) translate(-17.32874013844839, -17.543187423870403) translate(0, 0) ">
      <use xlink:href="#path-3" fill="url(#linearGradient-4)"/>
    </g>
  </g>
</svg>