<svg xmlns="http://www.w3.org/2000/svg" viewBox="0 0 145.682 60">
  <defs>
    <style>
      .cls-1 {
        fill: none;
      }

      .cls-2, .cls-4 {
        fill: #fff;
      }

      .cls-2, .cls-3 {
        fill-rule: evenodd;
      }

      .cls-3, .cls-6 {
        fill: #06a7ff;
      }

      .cls-4 {
        font-size: 15px;
        font-family: SegoeUI, Segoe UI;
      }

      .cls-5 {
        font-size: 10px;
        font-family: SegoeUI-Light, Segoe UI;
        font-weight: 300;
      }
    </style>
  </defs>
  <g transform="translate(-20.006)">
    <g transform="translate(18500.217 17400)">
      <rect class="cls-1" width="59.975" height="60" transform="translate(-18480.186 -17400)"/>
      <path class="cls-2" d="M3667.539,2223.643l3.623,4.531c1.337,1.534,2.484,2.928,3.933,4.361.418.414.539.656.91,1.058,1.823,1.972,5.354,5.008,7.556,6.923h-16.021Zm-4.638,16.45v-5.484h2.671v5.525Zm-.06-7.1-.017-5.807,2.843-.007-.039,5.784Zm-.045-12.292,2.826-.018-.051,4.787h-2.811Zm-18.166,19.111c1.79.87,12.849-10.792,16.3-15.044v15.606c-5.84.292-17.081.717-23.048,1.547,0-.006,17.026-16.737,23.048-25.87,0,1.643.01,3.287.008,4.929,0,1.239-.229,1.028-.791,1.739C3646.422,2237.664,3642.961,2238.9,3644.63,2239.813Zm18.27-22.074,1.125,1.406H3662.9Zm-28.81,25.589c0,1.641.979,1.193,2.53,1.126,7.516-.328,15.286-1.171,22.914-1.543.751-.014,1.4-.147,1.4.277,0,1.468-.2,6.691-.562,7.452l7.449-1.266c0-1.6-.281-3.932-.281-6.608,7.465.008,15.511-.3,22.921.152.19.012,1.1.329.9-.785-.326-1.8-3.8-1.4-4.6-2.012l-2.969-2.373a111.358,111.358,0,0,1-9.41-9.144l-2.028-2.33c-.37-.437-.656-.811-1.006-1.243l-8.368-11.312c-.823-1.239-.547-1.181-1.771-1.181C3661.038,2214.56,3634.759,2243.3,3634.09,2243.327Z" transform="translate(-22114.301 -19601.219)"/>
      <path class="cls-3" d="M10874.817,2057.312c-.285-.375,1.12-.826,2.193,0,.047.061,21.927,24.673,27.949,28.416C10902.836,2089.912,10883.942,2067,10874.817,2057.312Z" transform="translate(-29325.195 -19446.152)"/>
    </g>
    <text class="cls-4" transform="translate(127.689 28)"><tspan x="-37.218" y="0">BROOKLYN</tspan><tspan class="cls-5"><tspan x="-15.845" y="17">BRIDGE</tspan></tspan></text>
    <rect class="cls-6" width="50" height="1" rx="0.5" transform="translate(103 33)"/>
  </g>
</svg>
