<svg xmlns="http://www.w3.org/2000/svg" viewBox="0 0 511.997 511.999">
  <defs>
    <style>
      .cls-1 {
        fill: none;
      }

      .cls-2 {
        fill: #262223;
      }

      .cls-2, .cls-3 {
        fill-rule: evenodd;
      }

      .cls-3 {
        fill: #06a7ff;
      }
    </style>
  </defs>
  <g id="logo-bridge" transform="translate(18480.209 17400)">
    <rect id="Rectangle_1" data-name="Rectangle 1" class="cls-1" width="511.783" height="511.999" transform="translate(-18479.994 -17400)"/>
    <path id="Path_3" data-name="Path 3" class="cls-2" d="M3919.52,2307.32l30.914,38.662c11.41,13.088,21.193,24.984,33.561,37.213,3.566,3.529,4.6,5.594,7.768,9.025,15.557,16.826,45.686,42.736,64.475,59.074H3919.52Zm-39.576,140.373V2400.9h22.791v47.15Zm-.512-60.586-.145-49.555,24.256-.059-.336,49.359Zm-.385-104.891,24.117-.15-.434,40.854h-23.988ZM3724.033,2445.3c15.273,7.422,109.646-92.092,139.117-128.375V2450.1c-49.834,2.492-145.762,6.117-196.68,13.2.031-.049,145.287-142.824,196.68-220.76,0,14.018.084,28.051.066,42.059-.014,10.576-1.955,8.773-6.752,14.842C3739.326,2426.961,3709.789,2437.482,3724.033,2445.3Zm155.9-188.365,9.6,12h-9.6Zm-245.846,218.355c0,14,8.352,10.184,21.592,9.607,64.139-2.8,130.443-10,195.529-13.172,6.406-.123,11.936-1.258,11.936,2.365,0,12.525-1.686,57.1-4.8,63.588l63.563-10.8c0-13.682-2.4-33.551-2.4-56.389,63.7.068,132.365-2.537,195.592,1.3,1.619.1,9.424,2.8,7.7-6.7-2.779-15.383-32.4-11.916-39.217-17.172l-25.334-20.25c-32.158-27.037-51.533-48.152-80.3-78.031l-17.307-19.881c-3.156-3.729-5.6-6.916-8.584-10.607l-71.406-96.531c-7.027-10.572-4.666-10.078-15.111-10.078C3864.045,2229.811,3639.8,2475.1,3634.092,2475.291Z" transform="translate(-22114.301 -19515.965)"/>
    <path id="Path_4" data-name="Path 4" class="cls-3" d="M10875.1,2060.82c-2.43-3.205,9.563-7.051,18.719,0,.4.523,187.109,210.543,238.5,242.48C11114.2,2339,10952.969,2143.51,10875.1,2060.82Z" transform="translate(-29100.736 -19365.59)"/>
  </g>
</svg>
