<svg xmlns="http://www.w3.org/2000/svg" viewBox="3925 169.096 40 39.808">
  <path d="M33.629,38.83l-9.215-9.213a15.431,15.431,0,0,0,5.22-5.22l9.215,9.213a3.536,3.536,0,0,1,0,5.22,3.805,3.805,0,0,1-5.22,0ZM0,15.03A14.972,14.972,0,1,1,14.972,30,14.971,14.971,0,0,1,0,15.03Zm3.687.152A11.209,11.209,0,1,0,14.9,3.981a11.209,11.209,0,0,0-11.211,11.2ZM6.3,15.03a8.844,8.844,0,0,1,8.751-8.751V8.735A6.424,6.424,0,0,0,8.755,15.03Z" transform="translate(3925 169.038)"/>
</svg>
<svg xmlns="http://www.w3.org/2000/svg" viewBox="3925 169.096 40 39.808">
  <path d="M33.629,38.83l-9.215-9.213a15.431,15.431,0,0,0,5.22-5.22l9.215,9.213a3.536,3.536,0,0,1,0,5.22,3.805,3.805,0,0,1-5.22,0ZM0,15.03A14.972,14.972,0,1,1,14.972,30,14.971,14.971,0,0,1,0,15.03Zm3.687.152A11.209,11.209,0,1,0,14.9,3.981a11.209,11.209,0,0,0-11.211,11.2ZM6.3,15.03a8.844,8.844,0,0,1,8.751-8.751V8.735A6.424,6.424,0,0,0,8.755,15.03Z" transform="translate(3925 169.038)"/>
</svg>
